<svg width="33" height="32" viewBox="0 0 33 32" fill="none" xmlns="http://www.w3.org/2000/svg">
<g id="Logos">
<path id="razor" d="M7.15124 17.4075C10.5662 17.4973 21.7771 17.3236 26.1385 17.4192C29.7909 17.5007 28.9562 21.8012 28.83 22.8763L28.827 22.8733C28.3708 26.713 25.4956 30.3356 21.7596 31.3587C19.2144 32.0542 8.51371 32.1612 5.73034 31.7903C4.55987 31.6338 4.27598 31.0425 4.1698 29.927C3.95747 27.7161 3.91727 22.0192 4.21277 19.886C4.46815 18.043 5.45253 17.3611 7.15124 17.4075ZM11.2401 0.64383C13.7855 -0.0516254 24.4849 -0.16164 27.2684 0.20926C28.4392 0.365746 28.7238 0.956849 28.83 2.07254C29.0423 4.28392 29.0825 9.98083 28.787 12.1136C28.5316 13.9565 27.5471 14.6374 25.8485 14.5911C22.4339 14.5013 11.2228 14.675 6.8612 14.5794C3.20839 14.5011 4.0436 10.2004 4.17273 9.12528C4.62626 5.28571 7.50422 1.66385 11.2401 0.64383Z" fill="black"/>
</g>
</svg>
