<svg width="41" height="40" viewBox="0 0 41 40" fill="none" xmlns="http://www.w3.org/2000/svg">
<path d="M0.546339 4.0625C3.36399 4.0625 6.18164 4.0625 9.08467 4.0625C9.10289 6.43137 9.10289 6.43137 9.10833 7.17763C9.11013 7.39958 9.11013 7.39958 9.11199 7.62152C9.11278 7.7199 9.1135 7.81828 9.11417 7.91667C9.11519 8.06622 9.11645 8.21577 9.11777 8.36532C9.11801 8.4087 9.11825 8.45207 9.11849 8.49676C9.12807 9.4558 9.42375 10.3549 10.0879 11.07C10.47 11.4349 10.9545 11.6554 11.4848 11.6533C11.5377 11.6535 11.5906 11.6537 11.6452 11.6539C11.7958 11.649 11.9402 11.6266 12.0887 11.6015C12.9908 11.456 13.8478 11.5242 14.6658 11.9344C14.7079 11.9542 14.75 11.974 14.7934 11.9945C15.8706 12.5102 16.5687 13.4474 16.9924 14.5366C17.0081 14.585 17.0237 14.6335 17.0399 14.6833C17.0562 14.73 17.0562 14.73 17.0729 14.7775C17.2198 15.2589 17.1822 15.7721 17.1798 16.2703C17.1722 16.9619 17.1722 16.9619 17.4147 17.5989C17.4356 17.6377 17.4566 17.6765 17.4781 17.7165C17.8875 18.4537 18.6306 18.9555 19.414 19.2232C19.4523 19.2365 19.4906 19.2498 19.5301 19.2634C20.1588 19.4434 20.916 19.4136 21.5381 19.2232C21.5957 19.2066 21.5957 19.2066 21.6545 19.1896C22.175 19.0205 22.6095 18.731 22.9959 18.3486C23.0259 18.3207 23.0558 18.2927 23.0867 18.264C23.5104 17.861 23.8338 17.3243 23.8504 16.7283C23.8503 16.5593 23.8457 16.3907 23.8393 16.2218C23.8354 16.086 23.8322 15.9501 23.8295 15.8143C23.8286 15.7652 23.8286 15.7652 23.8276 15.7152C23.8137 14.5522 24.3484 13.559 25.1331 12.7362C25.5817 12.304 26.0831 11.9969 26.6611 11.7678C26.6894 11.7565 26.7177 11.7451 26.7469 11.7334C27.4619 11.4599 28.2845 11.4943 29.029 11.6237C29.6604 11.7161 30.2214 11.6067 30.7429 11.2264C30.9351 11.0597 30.9351 11.0597 31.0761 10.8515C31.1036 10.8515 31.131 10.8515 31.1594 10.8515C31.1688 10.824 31.1783 10.7965 31.188 10.7682C31.2427 10.6433 31.2427 10.6433 31.3338 10.5079C31.4461 10.3328 31.5252 10.1477 31.6045 9.95603C31.6169 9.92638 31.6293 9.89673 31.642 9.86618C31.8517 9.34865 31.8728 8.83338 31.876 8.28021C31.8764 8.2335 31.8768 8.18679 31.8772 8.13866C31.8785 7.98932 31.8796 7.83998 31.8806 7.69064C31.8814 7.59769 31.8822 7.50474 31.883 7.4118C31.8858 7.06937 31.8883 6.72694 31.8909 6.38451C31.8969 5.61825 31.9029 4.85198 31.9091 4.0625C34.7267 4.0625 37.5444 4.0625 40.4474 4.0625C40.4526 5.30854 40.4526 5.30854 40.4578 6.57974C40.4593 6.84075 40.4608 7.10177 40.4624 7.37068C40.4632 7.69268 40.4632 7.69268 40.4633 7.84405C40.4636 7.94839 40.4641 8.05272 40.465 8.15706C40.4748 9.42331 40.2342 10.4562 39.3469 11.4099C39.0141 11.7461 38.6318 11.997 38.1983 12.1843C38.1351 12.2124 38.1351 12.2124 38.0707 12.2411C37.4092 12.5271 36.7426 12.6401 36.0247 12.6633C35.4944 12.6809 34.9728 12.735 34.4914 12.9757C34.4461 12.9983 34.4008 13.021 34.3541 13.0443C33.5433 13.4692 32.9664 14.1765 32.69 15.0507C32.4878 15.7542 32.5125 16.4903 32.7421 17.1824C32.7551 17.2216 32.7681 17.2608 32.7815 17.3011C33.0836 18.1213 33.7196 18.7627 34.4875 19.1611C35.0165 19.3986 35.567 19.4457 36.1392 19.4679C36.8514 19.5026 37.563 19.5848 38.1983 19.9313C38.2482 19.9561 38.2981 19.9808 38.3481 20.0053C39.2419 20.4521 39.934 21.1862 40.264 22.1373C40.3145 22.2897 40.3628 22.4422 40.4058 22.5969C40.414 22.6259 40.4222 22.6548 40.4306 22.6846C40.4993 22.9534 40.5018 23.2161 40.4995 23.4924C40.4992 23.5401 40.4989 23.5879 40.4986 23.6371C40.4863 24.6544 40.2679 25.6244 39.6144 26.4288C39.5732 26.482 39.5732 26.482 39.5313 26.5363C39.4075 26.6856 39.2621 26.8035 39.1146 26.9286C39.0759 26.9638 39.0373 26.999 38.9974 27.0353C38.6686 27.3049 38.2608 27.454 37.8651 27.595C37.8321 27.6069 37.799 27.6189 37.765 27.6312C37.3071 27.7911 36.8434 27.872 36.3631 27.9308C35.634 28.0159 35.634 28.0159 34.9287 28.2093C34.8983 28.2204 34.8679 28.2314 34.8366 28.2428C34.2331 28.4681 33.6768 28.8337 33.3252 29.3859C33.2987 29.4226 33.2987 29.4226 33.2717 29.46C33.0942 29.7167 33.0059 30.0081 32.9087 30.3022C32.8812 30.3847 32.8537 30.4672 32.8254 30.5521C32.6581 32.2804 32.6772 34.0222 32.6588 35.7584C29.8549 35.7584 27.051 35.7584 24.1621 35.7584C24.1557 34.5588 24.1557 34.5588 24.1491 33.3349C24.1472 33.0841 24.1453 32.8333 24.1433 32.5749C24.1424 32.2643 24.1424 32.2643 24.1422 32.118C24.1419 32.0177 24.1412 31.9174 24.1401 31.8171C24.1318 30.9921 24.1849 30.2107 24.5786 29.4692C24.5943 29.435 24.6101 29.4008 24.6263 29.3656C24.7577 29.083 24.93 28.8407 25.1201 28.5946C25.1385 28.5701 25.157 28.5456 25.176 28.5204C25.711 27.8408 26.4986 27.4689 27.3275 27.3034C27.3809 27.2922 27.3809 27.2922 27.4354 27.2807C27.735 27.2233 28.0267 27.2132 28.3304 27.2129C28.9708 27.2122 29.5296 27.1638 30.1181 26.8869C30.1457 26.8743 30.1734 26.8616 30.2018 26.8486C30.7163 26.6061 31.1856 26.2017 31.4926 25.7207C31.5229 25.6757 31.5229 25.6757 31.5539 25.6297C31.9338 25.038 32.0922 24.4293 32.0887 23.7319C32.0884 23.6601 32.0884 23.6601 32.0881 23.5869C32.0753 22.66 31.7207 21.8691 31.0925 21.192C30.264 20.429 29.263 20.1956 28.1683 20.202C28.1336 20.2021 28.0989 20.2022 28.0631 20.2023C27.1312 20.2076 26.3568 20.3878 25.6609 21.0497C24.9808 21.786 24.8042 22.6009 24.8081 23.5647C24.8092 24.5893 24.478 25.4653 23.8289 26.2622C23.7954 26.3051 23.7619 26.3481 23.7274 26.3923C23.1579 27.0313 22.3939 27.4443 21.5798 27.6783C21.5432 27.6892 21.5066 27.7001 21.4689 27.7114C21.1471 27.8009 20.8457 27.8243 20.5125 27.8214C20.4615 27.8211 20.4105 27.8208 20.3579 27.8205C19.2588 27.8007 18.2188 27.3504 17.4339 26.574C17.341 26.4724 17.2524 26.3685 17.1648 26.2622C17.1357 26.2283 17.1066 26.1944 17.0767 26.1595C16.4009 25.3524 16.1796 24.4046 16.1896 23.3793C16.1951 22.5418 15.9742 21.7141 15.3739 21.0975C14.6553 20.4259 13.8523 20.1993 12.8838 20.2043C12.7791 20.2046 12.6744 20.2034 12.5697 20.2021C11.6064 20.198 10.6651 20.4887 9.94403 21.1518C9.24054 21.8823 8.91082 22.7018 8.91026 23.7111C8.90975 23.7581 8.90924 23.8051 8.90871 23.8536C8.9071 24.7803 9.30505 25.6057 9.95135 26.2618C10.3358 26.634 10.7941 26.8702 11.2921 27.0535C11.322 27.0651 11.3519 27.0767 11.3827 27.0886C11.6733 27.1899 11.954 27.1962 12.2597 27.1985C13.4974 27.2099 14.7025 27.3745 15.6155 28.2954C15.689 28.3802 15.761 28.466 15.832 28.5529C15.8618 28.5889 15.8915 28.625 15.9222 28.6621C16.3023 29.1434 16.5507 29.6679 16.7067 30.2606C16.7178 30.3022 16.7289 30.3437 16.7404 30.3866C16.8195 30.7024 16.8491 30.9937 16.8458 31.3185C16.8458 31.3677 16.8459 31.4169 16.8459 31.4676C16.8458 31.6248 16.8448 31.7819 16.8438 31.9391C16.8437 32.037 16.8435 32.1349 16.8435 32.2327C16.8428 32.5932 16.8411 32.9536 16.8394 33.3141C16.8369 34.1207 16.8343 34.9274 16.8316 35.7584C14.0277 35.7584 11.2238 35.7584 8.33496 35.7584C8.32122 34.4664 8.30747 33.1744 8.29331 31.8433C8.12053 30.122 8.12053 30.122 7.13588 28.7869C6.58333 28.3543 5.83426 28.0508 5.13045 27.9867C3.58974 27.8455 2.28777 27.4734 1.24236 26.2781C0.764911 25.6716 0.524575 24.8181 0.504689 24.0547C0.503837 24.0226 0.502984 23.9905 0.502106 23.9575C0.475638 22.7997 0.692559 21.7202 1.49909 20.8476C1.83246 20.5 2.20134 20.2351 2.62886 20.0146C2.66615 19.9937 2.66615 19.9937 2.70419 19.9723C3.3257 19.6355 4.04541 19.5073 4.74308 19.4794C5.84171 19.4328 6.79742 19.1837 7.57744 18.3538C8.22472 17.5953 8.48293 16.693 8.42737 15.7095C8.35442 14.8303 7.90443 14.0042 7.23432 13.4346C6.58349 12.9241 5.89674 12.7018 5.07623 12.6725C4.26711 12.6428 3.48967 12.5367 2.75381 12.1843C2.72731 12.1717 2.70082 12.159 2.67352 12.1459C2.28191 11.9528 1.97848 11.697 1.6709 11.393C1.64008 11.3652 1.60926 11.3373 1.57751 11.3087C0.991286 10.7681 0.593578 9.84818 0.537352 9.05942C0.523217 8.70494 0.52717 8.35037 0.53007 7.99569C0.530315 7.89469 0.530485 7.79368 0.530578 7.69268C0.531445 7.3217 0.533771 6.95072 0.535927 6.57974C0.539363 5.74905 0.542799 4.91836 0.546339 4.0625Z" fill="black"/>
</svg>
