<svg width="128" height="129" viewBox="0 0 128 129" fill="none" xmlns="http://www.w3.org/2000/svg">
<path d="M64 0.5C99.4669 0.5 128 29.0331 128 64.5C128 99.9669 99.4669 128.5 64 128.5C28.5331 128.5 0 99.9669 0 64.5C1.6306e-06 29.0331 28.5331 0.500002 64 0.5ZM78.667 19.4336C77.6001 18.9005 76.5328 19.4331 76.2666 20.5C76 20.7667 76 21.0331 76 21.5664V25.2998C76 26.3665 76.7997 27.433 77.5996 27.9668C98.3996 35.433 109.067 58.6332 101.333 79.167C97.333 90.3669 88.5327 98.9004 77.5996 102.9C76.5332 103.433 76.0001 104.233 76 105.566V109.3C76 110.367 76.5329 111.167 77.5996 111.434C77.8665 111.434 78.4001 111.433 78.667 111.167C104 103.167 117.867 76.2334 109.867 50.9004C105.067 35.7005 93.3332 24.2336 78.667 19.4336ZM50.4004 19.167C50.1335 19.167 49.5999 19.1674 49.333 19.4336C24.0001 27.4337 10.1328 54.3672 18.1328 79.7002C22.9328 94.6333 34.3999 106.1 49.333 110.9C50.3999 111.434 51.4672 110.9 51.7334 109.833C52.0001 109.567 52 109.3 52 108.767V105.033C52 104.233 51.2004 103.167 50.4004 102.633C29.6005 95.1666 18.9335 71.9673 26.667 51.4336C30.667 40.2336 39.4673 31.7002 50.4004 27.7002C51.4671 27.1671 52 26.3668 52 25.0332V21.2998C51.9999 20.2331 51.467 19.4333 50.4004 19.167ZM61.8672 33.0332C60.8003 33.0332 60.0003 33.8332 59.7334 35.167V41.2998C51.7334 42.3667 46.667 47.7003 46.667 54.3672C46.6671 63.167 52.0003 66.633 63.2002 67.9668C70.667 69.2999 73.0674 70.9001 73.0674 75.167C73.0673 79.4338 69.3328 82.3672 64.2666 82.3672C57.3333 82.3671 54.9329 79.4333 54.1328 75.4336C53.8666 74.3674 53.0666 73.833 52.2666 73.833H47.7334C46.6672 73.833 45.8672 74.6333 45.8672 75.7002V75.9668C46.9334 82.633 51.2001 87.4328 60 88.7666V95.167C60.0001 96.2331 60.8 97.0329 62.1328 97.2998H66.1328C67.1996 97.2998 67.9997 96.5 68.2666 95.167V88.7666C76.2666 87.4328 81.5996 81.8328 81.5996 74.6328C81.5995 65.2999 75.9997 62.0997 64.7998 60.7666C56.8001 59.6997 55.2002 57.5667 55.2002 53.833C55.2002 50.0993 57.8671 47.7002 63.2002 47.7002C68 47.7002 70.6669 49.3 72 53.2998C72.2669 54.0998 73.0672 54.6328 73.8672 54.6328H78.1328C79.1997 54.6328 80 53.8328 80 52.7666V52.5C78.9331 46.6331 74.1331 42.0995 68 41.5664V35.167C68 34.1002 67.2002 33.3001 65.8672 33.0332H61.8672Z" fill="black"/>
</svg>
