<svg width="129" height="129" viewBox="0 0 129 129" fill="none" xmlns="http://www.w3.org/2000/svg">
<path d="M103.901 8.49988C104.082 8.4994 104.259 8.55106 104.412 8.64832C104.564 8.74564 104.686 8.88458 104.761 9.04871L128.1 57.9198C128.189 58.1014 128.217 58.3071 128.18 58.5057C128.144 58.7044 128.044 58.8859 127.896 59.0243L64.864 119.233C64.685 119.404 64.4461 119.5 64.198 119.5C63.9499 119.5 63.711 119.404 63.532 119.233L0.499756 59.0204C0.35209 58.882 0.252242 58.7005 0.215576 58.5018C0.178963 58.3031 0.206992 58.0976 0.295654 57.9159L23.6345 9.0448C23.7109 8.88023 23.8342 8.74112 23.988 8.64441C24.1419 8.54783 24.3209 8.49762 24.5027 8.49988H103.901ZM33.8396 38.454H56.1599V48.1757C38.0176 49.0065 24.3739 52.5886 24.3738 56.8817C24.3738 61.1748 38.0175 64.7532 56.1599 65.5878V96.7528H72.2927V65.577C90.3935 64.7462 104.014 61.1671 104.014 56.8778C104.014 52.5888 90.406 49.0105 72.2957 48.1757V38.454H94.6208V23.6239H33.8396V38.454ZM56.1638 60.1639C57.2123 60.2391 60.2142 60.4159 64.3621 60.4159C69.3395 60.4159 71.8321 60.2092 72.281 60.1678V49.3026C88.2777 50.0131 100.217 52.7958 100.217 56.119C100.216 59.442 88.2808 62.2238 72.281 62.9305L72.2957 62.9344C71.842 62.9683 69.5033 63.1073 64.2898 63.1073C60.1421 63.1073 57.1972 62.9833 56.1638 62.9344C40.1338 62.2315 28.1687 59.4496 28.1677 56.119C28.1677 52.7883 40.1332 50.01 56.1638 49.2958V60.1639ZM72.2957 48.1757V48.1786L72.2927 48.1757H72.2957Z" fill="black"/>
</svg>
