<svg width="129" height="129" viewBox="0 0 129 129" fill="none" xmlns="http://www.w3.org/2000/svg">
<g clip-path="url(#clip0_11_3261)">
<path fill-rule="evenodd" clip-rule="evenodd" d="M65.4049 42.2086H60.3523V32.4511L59.9912 32.0895H54.6979L54.3368 32.4511V42.4473H41.8269V48.9523H47.4813C48.2179 48.9523 49.9053 50.7919 49.7729 51.7178L49.7536 79.8933C49.4332 81.9296 46.9225 81.8043 45.0184 81.7093C43.976 81.6573 43.1154 81.6144 42.8957 81.9402L41.8269 88.9395H54.0961V99.2974H60.3523V89.1806H65.4049V99.2974H71.4203V88.9395C80.7408 88.6984 89.5943 86.1644 90.1985 75.3412C90.5475 69.0966 87.7456 64.7061 81.5255 63.4041L81.6748 62.9075C87.346 60.3373 88.0248 51.9131 84.4069 47.3924C81.4384 43.684 76.1738 42.9087 71.7304 42.2543L71.7287 42.2541L71.4203 42.2086V32.0919H65.766L65.4049 32.4535V42.2086ZM61.2514 61.9611C61.0246 61.9613 60.8048 61.9616 60.593 61.9623V49.5599C60.7447 49.3212 60.9252 49.2465 61.1948 49.1982C62.1095 49.0295 64.4854 49.1356 65.5228 49.1982C68.734 49.3911 74.3065 50.3049 74.9709 54.1915C76.2954 61.9456 66.7402 61.9555 61.2514 61.9611ZM77.6861 72.9109C80.2786 82.0825 66.1896 81.9354 60.593 81.7136V67.9851H69.1336C71.8633 67.9851 76.8653 70.0032 77.6861 72.9109Z" fill="black"/>
<path d="M24.3655 27.8894C24.4795 28.0085 24.6951 28.2099 24.9597 28.4571C25.8795 29.3165 27.3908 30.7284 27.2805 31.1516C10.3077 49.6587 10.209 79.5774 27.3744 98.005L24.144 101.701C4.81462 81.5328 4.86758 47.6865 24.144 27.5157C24.2384 27.4765 24.2527 27.5524 24.2716 27.6526C24.2864 27.7312 24.3041 27.8247 24.3655 27.8894Z" fill="black"/>
<path d="M28.8278 25.6921C29.3911 26.3152 29.9521 26.9357 30.3641 27.183H30.3617C30.4042 27.2086 30.4443 27.2399 30.4848 27.2715C30.5931 27.3561 30.7044 27.443 30.8744 27.4289C31.3011 27.3998 31.7864 26.8804 32.221 26.4152C32.4337 26.1876 32.6342 25.973 32.8097 25.8352C45.8998 15.5835 61.9964 11.868 78.2061 16.5021C85.6105 18.619 92.1748 22.5007 98.0073 27.4554L101.233 24.0559C81.0682 4.97967 47.3898 4.95556 27.3937 24.2632C27.7998 24.5551 28.3148 25.1247 28.8278 25.6921Z" fill="black"/>
<path d="M30.8792 101.47C49.2602 118.88 79.5397 118.709 98.0025 101.475L101.486 104.958C81.0513 124.042 47.8063 124.105 27.3937 104.958L30.8768 101.47H30.8792Z" fill="black"/>
<path d="M105.335 28.1112C105.19 27.9593 105.116 27.7255 105.096 27.5157V27.5181C104.836 27.4466 104.742 27.5342 104.628 27.6404C104.589 27.6773 104.547 27.7165 104.495 27.752C104.085 28.0293 101.486 30.72 101.524 30.9635C105.816 36.0532 109.429 41.7674 111.6 48.106C117.51 65.3522 113.618 84.4959 101.512 98.0074L104.74 101.46C116.485 88.9757 121.407 71.0809 118.268 54.1963C116.583 45.1308 111.702 34.8019 105.335 28.1112Z" fill="black"/>
<path fill-rule="evenodd" clip-rule="evenodd" d="M116.605 101.542C147.426 57.7358 113.998 -2.38366 60.7832 0.60845C14.9993 3.18104 -13.3979 52.0553 7.25065 93.3276C28.7561 136.309 88.9131 140.902 116.605 101.542ZM8.75752 44.8704C23.2004 3.71146 76.0661 -8.00139 106.644 23.3205L106.647 23.3181C139.013 56.4724 121.975 112.597 76.9086 122.258C31.883 131.909 -6.54712 88.4814 8.75752 44.8704Z" fill="black"/>
</g>
<defs>
<clipPath id="clip0_11_3261">
<rect width="128" height="128" fill="black" transform="translate(0.399902 0.5)"/>
</clipPath>
</defs>
</svg>
