<svg width="130" height="129" viewBox="0 0 130 129" fill="none" xmlns="http://www.w3.org/2000/svg">
<g clip-path="url(#clip0_4177_6039)">
<path d="M36.6718 128.958C69.5396 128.958 69.5396 128.48 75.1125 126.867C82.3952 124.758 54.55 105.958 36.6718 105.958C18.7939 105.958 4.30093 111.107 4.30093 117.458C4.30093 123.809 18.7946 128.958 36.6718 128.958Z" fill="black"/>
<path d="M111.778 28.9718L113.301 30.6122L111.97 32.4114C68.794 90.7659 43.9218 117.188 33.3689 113.644C26.9411 111.485 20.495 104.994 14.0487 95.5678C11.7828 92.2545 9.65506 88.7659 7.71991 85.2938C6.43125 82.9819 5.34057 80.8733 4.77421 79.6855C4.05182 78.1706 3.74679 77.2374 3.50481 76.0114C3.49008 75.9365 3.49008 75.9365 3.47604 75.8641C3.37504 75.344 3.3401 75.1794 3.26461 74.8951C1.96541 70.0003 1.30093 64.9293 1.30093 59.7732C1.30093 27.2902 27.6437 0.957764 60.1386 0.957764C70.319 0.957764 80.1293 3.54768 88.8238 8.40946L89.0481 8.54985C96.1667 13.5039 103.738 20.3111 111.778 28.9718ZM86.0731 13.0543C78.2076 8.68147 69.3451 6.35364 60.1386 6.35364C30.6248 6.35364 6.69891 30.2703 6.69891 59.7732C6.69891 64.4611 7.30243 69.0671 8.48202 73.5111C8.59866 73.9509 8.65143 74.199 8.7752 74.8367C8.78816 74.9034 8.78816 74.9034 8.80063 74.9667C8.95683 75.7579 9.12159 76.2619 9.64695 77.3638C10.1636 78.4475 11.2018 80.4545 12.4353 82.6676C14.2953 86.0043 16.3392 89.3559 18.5048 92.5227C24.329 101.039 30.105 106.856 35.0878 108.529C41.7338 110.761 66.7525 84.2866 106.291 31.01C99.1124 23.4361 92.3693 17.4508 86.0731 13.0543Z" fill="black"/>
<path d="M86.0005 12.6385C78.1027 8.27864 69.2043 5.95776 59.9597 5.95776C30.3249 5.95776 6.30093 29.8032 6.30093 59.2177C6.30093 63.892 6.90697 68.4839 8.0914 72.915C8.20852 73.3531 8.26146 73.6005 8.38573 74.2363C8.39879 74.3027 8.39879 74.3027 8.41132 74.3663C8.56812 75.1547 8.73355 75.6577 9.26106 76.7562C9.77981 77.8363 10.8223 79.8373 12.0609 82.0438C13.9285 85.371 15.9808 88.7126 18.1553 91.8695C24.0034 100.36 29.8029 106.16 34.8065 107.828C41.4793 110.053 66.6007 83.658 106.301 30.5408C99.0933 22.9893 92.3225 17.0218 86.0005 12.6385Z" fill="#848484"/>
<path d="M70.8009 128.958C38.4925 128.958 12.3009 102.767 12.3009 70.4577C12.3009 38.1493 38.4925 11.9578 70.8009 11.9578C103.11 11.9578 129.301 38.1493 129.301 70.4577C129.301 102.767 103.11 128.958 70.8009 128.958ZM70.8009 123.591C100.146 123.591 123.934 99.8025 123.934 70.4577C123.934 41.1134 100.146 17.3248 70.8009 17.3248C41.4565 17.3248 17.6679 41.1134 17.6679 70.4577C17.6679 99.8025 41.4565 123.591 70.8009 123.591Z" fill="black"/>
<path d="M70.8009 123.958C100.348 123.958 124.301 100.005 124.301 70.4578C124.301 40.9104 100.348 16.9578 70.8009 16.9578C41.2538 16.9578 17.3009 40.9104 17.3009 70.4578C17.3009 100.005 41.2538 123.958 70.8009 123.958Z" fill="white"/>
<path fill-rule="evenodd" clip-rule="evenodd" d="M31.333 80.9578L24.3009 60.0172H30.4615L34.1277 72.0472L38.1847 59.9578H43.2033L47.2599 72.0472L50.9261 60.0172H56.9664L49.9347 80.9578H44.8559L40.6185 68.9876L36.4113 80.9578H31.333ZM59.2803 80.8093V60.0172H76.1994V64.9182H65.0501V68.0667H75.1474V72.6114H65.0501V75.9084H76.3495V80.8093H59.2803ZM84.4631 80.8093V65.067H78.1524V60.0172H96.6039V65.067H90.2931V80.8093H84.4631ZM99.1583 80.8093V60.0172H104.988V67.7994H112.471V60.0172H118.301V80.8093H112.471V72.9083H104.988V80.8093H99.1583Z" fill="black"/>
<path d="M4.89477 53.4832C3.47105 52.7629 2.89398 51.011 3.60585 49.5704C4.31771 48.1297 6.0489 47.546 7.47259 48.2663L15.7071 52.4325C17.1308 53.1529 17.7079 54.9044 16.996 56.345C16.2842 57.7856 14.553 58.3694 13.1293 57.6494L4.89477 53.4832Z" fill="black"/>
<path d="M3.97601 67.7072C2.53075 67.0097 1.89989 65.2199 2.56686 63.709C3.23386 62.1981 4.94617 61.5384 6.39139 62.2358L14.6259 66.2086C16.0711 66.906 16.702 68.6958 16.035 70.2067C15.368 71.7176 13.6557 72.3769 12.2105 71.6799L3.97601 67.7072Z" fill="black"/>
</g>
<defs>
<clipPath id="clip0_4177_6039">
<rect width="128" height="128" fill="white" transform="translate(1.30042 0.75)"/>
</clipPath>
</defs>
</svg>
